<svg width="12" height="12" viewBox="0 0 12 12" fill="none" xmlns="http://www.w3.org/2000/svg">
<path d="M6 11C8.76142 11 11 8.76142 11 6C11 3.23858 8.76142 1 6 1C3.23858 1 1 3.23858 1 6C1 8.76142 3.23858 11 6 11Z" fill="#373737"/>
<path d="M4.54492 4.49999C4.66247 4.16583 4.8945 3.88405 5.1999 3.70456C5.5053 3.52507 5.86437 3.45946 6.21351 3.51935C6.56265 3.57924 6.87933 3.76076 7.10746 4.03176C7.33559 4.30276 7.46045 4.64576 7.45992 5C7.45992 6 5.95992 6.5 5.95992 6.5" stroke="white" stroke-linecap="round" stroke-linejoin="round"/>
<path d="M6 8.5H6.005" stroke="white" stroke-width="1.5" stroke-linecap="round" stroke-linejoin="round"/>
</svg>
